<svg width="33" height="32" viewBox="0 0 33 32" fill="none" xmlns="http://www.w3.org/2000/svg">
    <path d="M28.9304 11.8739C28.5128 11.8739 28.1123 11.7671 27.8171 11.5771C27.5218 11.3871 27.3559 11.1294 27.3559 10.8606V8.83416C27.3534 7.49102 26.5232 6.20335 25.0475 5.25361C23.5717 4.30387 21.5708 3.76959 19.4837 3.76798H16.3349C15.9173 3.76798 15.5168 3.66123 15.2216 3.47122C14.9263 3.2812 14.7604 3.02348 14.7604 2.75475C14.7604 2.48602 14.9263 2.2283 15.2216 2.03829C15.5168 1.84827 15.9173 1.74152 16.3349 1.74152H19.4837C22.4057 1.74366 25.207 2.49161 27.2731 3.82127C29.3393 5.15094 30.5015 6.95373 30.5048 8.83416V10.8606C30.5048 11.1294 30.3389 11.3871 30.0437 11.5771C29.7484 11.7671 29.3479 11.8739 28.9304 11.8739Z"
          fill="#77ACF1"/>
    <path d="M17.3065 5.46914C16.8815 5.46909 16.474 5.37723 16.1735 5.21374L12.9685 3.4704C12.6681 3.30693 12.4993 3.08526 12.4993 2.85412C12.4993 2.62299 12.6681 2.40131 12.9685 2.23785L16.1735 0.494505C16.3214 0.411251 16.4982 0.344845 16.6937 0.299162C16.8892 0.253478 17.0995 0.229432 17.3123 0.228426C17.5251 0.227421 17.7361 0.249476 17.933 0.293304C18.13 0.337133 18.3089 0.401857 18.4594 0.483701C18.6098 0.565544 18.7288 0.662868 18.8094 0.769994C18.89 0.877119 18.9305 0.991901 18.9287 1.10764C18.9268 1.22338 18.8826 1.33776 18.7986 1.44411C18.7146 1.55046 18.5925 1.64664 18.4395 1.72705L16.3674 2.85412L18.4395 3.9812C18.6635 4.1031 18.8161 4.2584 18.8779 4.42747C18.9397 4.59653 18.908 4.77177 18.7867 4.93102C18.6655 5.09027 18.4601 5.2264 18.1966 5.32218C17.9332 5.41796 17.6234 5.46911 17.3065 5.46914Z"
          fill="#77ACF1"/>
    <path d="M16.3866 29.2719H12.5482C10.0041 29.2705 7.56505 28.8021 5.76609 27.9695C3.96713 27.1369 2.95513 26.0081 2.95209 24.8306V21.2775C2.95209 21.042 3.15429 20.816 3.51421 20.6494C3.87414 20.4829 4.3623 20.3893 4.87131 20.3893C5.38032 20.3893 5.86848 20.4829 6.2284 20.6494C6.58833 20.816 6.79053 21.042 6.79053 21.2775V24.8306C6.79053 25.5373 7.39714 26.2151 8.47691 26.7149C9.55668 27.2146 11.0212 27.4954 12.5482 27.4954H16.3866C16.8956 27.4954 17.3838 27.589 17.7437 27.7556C18.1037 27.9221 18.3059 28.1481 18.3059 28.3836C18.3059 28.6192 18.1037 28.8452 17.7437 29.0117C17.3838 29.1783 16.8956 29.2719 16.3866 29.2719Z"
          fill="#77ACF1"/>
    <path d="M16.0745 30.9865C15.7566 30.9864 15.4459 30.9351 15.1816 30.8389C14.9173 30.7427 14.7113 30.6061 14.5897 30.4461C14.4681 30.2862 14.4362 30.1103 14.4982 29.9405C14.5602 29.7708 14.7133 29.6148 14.938 29.4924L17.0165 28.3607L14.938 27.229C14.6452 27.064 14.4832 26.8429 14.4868 26.6134C14.4905 26.3839 14.6595 26.1644 14.9576 26.0021C15.2556 25.8398 15.6588 25.7478 16.0803 25.7458C16.5018 25.7438 16.9079 25.832 17.211 25.9914L20.4261 27.7419C20.7274 27.9061 20.8967 28.1286 20.8967 28.3607C20.8967 28.5928 20.7274 28.8154 20.4261 28.9795L17.211 30.73C16.9096 30.8942 16.5008 30.9864 16.0745 30.9865Z"
          fill="#77ACF1"/>
    <path d="M22.0844 29.2987V16.2078H23.6697V22.0373H30.6498V16.2078H32.235V29.2987H30.6498V23.4436H23.6697V29.2987H22.0844Z"
          fill="black"/>
    <path d="M1.58523 16V2.90909H6.16193C7.07386 2.90909 7.82599 3.06676 8.41832 3.3821C9.01065 3.69318 9.45171 4.11293 9.74148 4.64134C10.0313 5.16548 10.1761 5.74716 10.1761 6.38636C10.1761 6.94886 10.076 7.41335 9.87571 7.77983C9.67969 8.14631 9.41974 8.43608 9.09588 8.64915C8.77628 8.86222 8.42898 9.01989 8.05398 9.12216V9.25C8.45455 9.27557 8.85724 9.41619 9.26207 9.67188C9.6669 9.92756 10.0057 10.294 10.2784 10.7713C10.5511 11.2486 10.6875 11.8324 10.6875 12.5227C10.6875 13.179 10.5384 13.7692 10.2401 14.2933C9.94176 14.8175 9.47088 15.233 8.82741 15.5398C8.18395 15.8466 7.34659 16 6.31534 16H1.58523ZM3.17045 14.5938H6.31534C7.35085 14.5938 8.08594 14.3935 8.5206 13.9929C8.95952 13.5881 9.17898 13.098 9.17898 12.5227C9.17898 12.0795 9.06605 11.6705 8.8402 11.2955C8.61435 10.9162 8.29261 10.6136 7.875 10.3878C7.45739 10.1577 6.96307 10.0426 6.39205 10.0426H3.17045V14.5938ZM3.17045 8.66193H6.1108C6.58807 8.66193 7.01847 8.56818 7.40199 8.38068C7.78977 8.19318 8.09659 7.92898 8.32244 7.58807C8.55256 7.24716 8.66761 6.84659 8.66761 6.38636C8.66761 5.81108 8.46733 5.32315 8.06676 4.92259C7.66619 4.51776 7.03125 4.31534 6.16193 4.31534H3.17045V8.66193Z"
          fill="black"/>
</svg>
