<svg width="5" height="5" viewBox="0 0 5 5" fill="none" xmlns="http://www.w3.org/2000/svg">
    <path d="M4.73404 2.0155C4.66351 2.0155 4.59586 1.99782 4.54598 1.96636C4.49611 1.93489 4.46809 1.89221 4.46809 1.84771V1.51214C4.46767 1.28972 4.32743 1.07649 4.07814 0.919221C3.82885 0.761948 3.49086 0.673475 3.13831 0.673209H2.6064C2.53586 0.673209 2.46821 0.655531 2.41834 0.624065C2.36846 0.592599 2.34044 0.549922 2.34044 0.505423C2.34044 0.460923 2.36846 0.418246 2.41834 0.38678C2.46821 0.355314 2.53586 0.337636 2.6064 0.337636H3.13831C3.63189 0.337991 4.10509 0.461848 4.4541 0.682033C4.80311 0.902218 4.99944 1.20075 5 1.51214V1.84771C5 1.89221 4.97198 1.93489 4.9221 1.96636C4.87223 1.99782 4.80458 2.0155 4.73404 2.0155Z"
          fill="#77ACF1"/>
    <path d="M2.60638 1.00878C2.53585 1.00877 2.46821 0.991087 2.41835 0.959618L1.88643 0.624046C1.83657 0.592581 1.80856 0.549912 1.80856 0.505421C1.80856 0.46093 1.83657 0.41826 1.88643 0.386796L2.41835 0.0512232C2.44288 0.0351979 2.47223 0.0224156 2.50467 0.013622C2.53712 0.00482853 2.57202 0.00019993 2.60733 6.33506e-06C2.64265 -0.00018726 2.67767 0.00405803 2.71035 0.0124945C2.74304 0.0209309 2.77273 0.0333896 2.7977 0.0491435C2.82268 0.0648974 2.84242 0.0836311 2.8558 0.104251C2.86917 0.124872 2.8759 0.146966 2.87559 0.169244C2.87528 0.191523 2.86795 0.21354 2.85401 0.23401C2.84007 0.254481 2.81981 0.272995 2.79441 0.288473L2.45053 0.505421L2.79441 0.722369C2.83159 0.745834 2.85691 0.775727 2.86717 0.80827C2.87743 0.840812 2.87216 0.874543 2.85203 0.905198C2.83191 0.935852 2.79783 0.962054 2.7541 0.980491C2.71038 0.998928 2.65897 1.00877 2.60638 1.00878Z"
          fill="#77ACF1"/>
    <path d="M1.86169 4.36451H1.32978C0.97723 4.36424 0.639241 4.27577 0.38995 4.1185C0.140659 3.96122 0.0004223 3.74799 0 3.52558V2.85443C0 2.80993 0.0280203 2.76725 0.0778968 2.73579C0.127773 2.70432 0.19542 2.68664 0.265956 2.68664C0.336492 2.68664 0.404139 2.70432 0.454015 2.73579C0.503892 2.76725 0.531912 2.80993 0.531912 2.85443V3.52558C0.531912 3.65908 0.615973 3.78711 0.765602 3.88151C0.915232 3.9759 1.11817 4.02894 1.32978 4.02894H1.86169C1.93223 4.02894 1.99988 4.04661 2.04975 4.07808C2.09963 4.10955 2.12765 4.15222 2.12765 4.19672C2.12765 4.24122 2.09963 4.2839 2.04975 4.31537C1.99988 4.34683 1.93223 4.36451 1.86169 4.36451Z"
          fill="#77ACF1"/>
    <path d="M1.86174 4.70008C1.80915 4.70007 1.75774 4.69023 1.71401 4.67179C1.67028 4.65335 1.63621 4.62715 1.61608 4.5965C1.59596 4.56584 1.59069 4.53211 1.60095 4.49957C1.6112 4.46703 1.63652 4.43713 1.67371 4.41367L2.01759 4.19672L1.67371 3.97977C1.62526 3.94813 1.59845 3.90574 1.59906 3.86175C1.59967 3.81776 1.62764 3.77567 1.67695 3.74457C1.72626 3.71346 1.79296 3.69581 1.8627 3.69543C1.93243 3.69505 1.99961 3.71196 2.04977 3.74252L2.58168 4.07809C2.63154 4.10956 2.65955 4.15223 2.65955 4.19672C2.65955 4.24121 2.63154 4.28388 2.58168 4.31534L2.04977 4.65092C1.9999 4.68238 1.93227 4.70007 1.86174 4.70008Z"
          fill="#77ACF1"/>
    <path d="M0.103261 2.61117V0.346059H0.840106C0.986926 0.346059 1.10802 0.373341 1.20338 0.427904C1.29875 0.48173 1.36976 0.554358 1.41641 0.645789C1.46306 0.736482 1.48639 0.837129 1.48639 0.947731C1.48639 1.04506 1.47027 1.12543 1.43802 1.18884C1.40646 1.25225 1.36461 1.30239 1.31247 1.33926C1.26101 1.37613 1.2051 1.40341 1.14472 1.4211V1.44322C1.20921 1.44765 1.27405 1.47198 1.33923 1.51622C1.4044 1.56046 1.45895 1.62387 1.50285 1.70646C1.54676 1.78904 1.56872 1.89005 1.56872 2.0095C1.56872 2.12305 1.5447 2.22518 1.49668 2.31587C1.44865 2.40656 1.37284 2.47845 1.26925 2.53154C1.16565 2.58463 1.03083 2.61117 0.864804 2.61117H0.103261ZM0.358481 2.36785H0.864804C1.03152 2.36785 1.14987 2.3332 1.21985 2.26389C1.29051 2.19384 1.32585 2.10904 1.32585 2.0095C1.32585 1.93282 1.30767 1.86204 1.2713 1.79715C1.23494 1.73153 1.18314 1.67917 1.11591 1.6401C1.04867 1.60028 0.969088 1.58037 0.877154 1.58037H0.358481V2.36785ZM0.358481 1.34147H0.831873C0.908713 1.34147 0.978007 1.32525 1.03975 1.29281C1.10219 1.26036 1.15158 1.21465 1.18795 1.15566C1.22499 1.09667 1.24352 1.02736 1.24352 0.947731C1.24352 0.848189 1.21127 0.763764 1.14678 0.694454C1.08229 0.624406 0.980065 0.589382 0.840106 0.589382H0.358481V1.34147Z"
          fill="black"/>
    <path d="M4.60691 3.26135C4.59456 3.14927 4.54448 3.06226 4.45666 3.00033C4.36884 2.93839 4.26113 2.90742 4.13352 2.90742C4.04021 2.90742 3.95857 2.92364 3.88859 2.95609C3.8193 2.98853 3.7651 3.03314 3.72599 3.08991C3.68757 3.14669 3.66836 3.21121 3.66836 3.28347C3.66836 3.34393 3.68174 3.39591 3.7085 3.43942C3.73594 3.48218 3.77093 3.51794 3.81347 3.5467C3.856 3.57472 3.9006 3.59794 3.94725 3.61638C3.9939 3.63407 4.03678 3.64845 4.07589 3.65951L4.28995 3.72145C4.34483 3.73693 4.40589 3.75832 4.47313 3.7856C4.54105 3.81288 4.60588 3.85011 4.66763 3.8973C4.73006 3.94376 4.78152 4.00348 4.822 4.07648C4.86248 4.14948 4.88271 4.23906 4.88271 4.34524C4.88271 4.46764 4.85287 4.57824 4.79318 4.67704C4.73418 4.77585 4.64773 4.85438 4.53385 4.91263C4.42064 4.97088 4.28308 5 4.12117 5C3.97023 5 3.83954 4.97382 3.72908 4.92147C3.61931 4.86912 3.53286 4.79613 3.46974 4.70248C3.40731 4.60884 3.37198 4.50008 3.36374 4.37621H3.6272C3.63406 4.46174 3.66082 4.53253 3.70747 4.58856C3.75481 4.64386 3.8145 4.68515 3.88653 4.71244C3.95926 4.73898 4.03747 4.75225 4.12117 4.75225C4.21859 4.75225 4.30607 4.73529 4.38359 4.70138C4.46112 4.66672 4.52253 4.61879 4.56781 4.55759C4.61309 4.49566 4.63573 4.4234 4.63573 4.34082C4.63573 4.26561 4.61617 4.20441 4.57707 4.15722C4.53796 4.11003 4.48651 4.07169 4.4227 4.04219C4.3589 4.0127 4.28995 3.98689 4.21585 3.96477L3.95651 3.88514C3.79186 3.83426 3.6615 3.76163 3.56545 3.66725C3.4694 3.57287 3.42137 3.44937 3.42137 3.29674C3.42137 3.16992 3.45328 3.05931 3.51708 2.96494C3.58157 2.86982 3.66802 2.79608 3.77642 2.74373C3.8855 2.69064 4.00728 2.6641 4.14175 2.6641C4.2776 2.6641 4.39835 2.69028 4.504 2.74263C4.60966 2.79424 4.69336 2.86503 4.7551 2.95498C4.81754 3.04494 4.85047 3.14706 4.8539 3.26135H4.60691Z"
          fill="black"/>
</svg>
