<svg width="32" height="32" viewBox="0 0 32 32" fill="none" xmlns="http://www.w3.org/2000/svg">
    <path d="M27.1222 11.8739C26.7307 11.8739 26.3553 11.7671 26.0785 11.5771C25.8017 11.3871 25.6462 11.1294 25.6462 10.8606V8.83416C25.6438 7.49102 24.8655 6.20335 23.482 5.25361C22.0984 4.30387 20.2226 3.76959 18.266 3.76799H15.3139C14.9225 3.76799 14.547 3.66123 14.2702 3.47122C13.9934 3.2812 13.8379 3.02348 13.8379 2.75475C13.8379 2.48602 13.9934 2.2283 14.2702 2.03829C14.547 1.84827 14.9225 1.74152 15.3139 1.74152H18.266C21.0053 1.74366 23.6315 2.49161 25.5685 3.82127C27.5055 5.15094 28.5951 6.95373 28.5982 8.83416V10.8606C28.5982 11.1294 28.4427 11.3871 28.1659 11.5771C27.8891 11.7671 27.5137 11.8739 27.1222 11.8739Z"
          fill="#77ACF1"/>
    <path d="M16.2249 5.46915C15.8265 5.4691 15.4444 5.37723 15.1627 5.21375L12.158 3.4704C11.8764 3.30694 11.7181 3.08526 11.7181 2.85413C11.7181 2.62299 11.8764 2.40132 12.158 2.23785L15.1627 0.494505C15.3013 0.411251 15.4671 0.344846 15.6504 0.299162C15.8337 0.253478 16.0308 0.229432 16.2303 0.228426C16.4298 0.227421 16.6276 0.249476 16.8122 0.293304C16.9969 0.337133 17.1646 0.401857 17.3057 0.483701C17.4467 0.565545 17.5583 0.662869 17.6338 0.769994C17.7094 0.87712 17.7474 0.991901 17.7456 1.10764C17.7439 1.22338 17.7025 1.33776 17.6237 1.44411C17.545 1.55046 17.4305 1.64664 17.287 1.72705L15.3445 2.85413L17.287 3.9812C17.4971 4.1031 17.6401 4.2584 17.6981 4.42747C17.756 4.59653 17.7262 4.77177 17.6126 4.93102C17.4989 5.09028 17.3064 5.2264 17.0594 5.32218C16.8124 5.41797 16.522 5.46911 16.2249 5.46915Z"
          fill="#77ACF1"/>
    <path d="M15.3625 29.2719H11.7639C9.37882 29.2705 7.09223 28.8021 5.4057 27.9695C3.71918 27.1369 2.77044 26.0081 2.76758 24.8306V21.2775C2.76758 21.042 2.95714 20.816 3.29457 20.6494C3.632 20.4829 4.08965 20.3893 4.56685 20.3893C5.04404 20.3893 5.50169 20.4829 5.83912 20.6494C6.17655 20.816 6.36612 21.042 6.36612 21.2775V24.8306C6.36612 25.5373 6.93481 26.2151 7.9471 26.7149C8.95938 27.2146 10.3323 27.4954 11.7639 27.4954H15.3625C15.8397 27.4954 16.2973 27.589 16.6347 27.7556C16.9722 27.9221 17.1617 28.1481 17.1617 28.3837C17.1617 28.6192 16.9722 28.8452 16.6347 29.0117C16.2973 29.1783 15.8397 29.2719 15.3625 29.2719Z"
          fill="#77ACF1"/>
    <path d="M15.0698 30.9865C14.7718 30.9864 14.4805 30.9351 14.2327 30.8389C13.985 30.7427 13.7918 30.6061 13.6778 30.4461C13.5638 30.2862 13.5339 30.1103 13.5921 29.9405C13.6502 29.7708 13.7937 29.6148 14.0044 29.4924L15.953 28.3607L14.0044 27.229C13.7298 27.064 13.5779 26.8429 13.5814 26.6134C13.5848 26.3839 13.7433 26.1644 14.0227 26.0021C14.3021 25.8398 14.6801 25.7478 15.0753 25.7458C15.4704 25.7438 15.8511 25.832 16.1353 25.9914L19.1494 27.7419C19.4319 27.9061 19.5907 28.1286 19.5907 28.3607C19.5907 28.5928 19.4319 28.8154 19.1494 28.9795L16.1353 30.73C15.8528 30.8942 15.4695 30.9864 15.0698 30.9865Z"
          fill="#77ACF1"/>
    <path d="M29.9623 19.4805C29.8856 18.8328 29.5746 18.33 29.0291 17.972C28.4836 17.614 27.8146 17.4351 27.022 17.4351C26.4424 17.4351 25.9353 17.5288 25.5007 17.7163C25.0703 17.9038 24.7336 18.1616 24.4907 18.4898C24.2521 18.8179 24.1328 19.1908 24.1328 19.6084C24.1328 19.9578 24.2159 20.2582 24.3821 20.5096C24.5525 20.7568 24.7699 20.9635 25.0341 21.1297C25.2983 21.2916 25.5753 21.4258 25.865 21.5324C26.1548 21.6346 26.4211 21.7177 26.664 21.7817L27.9936 22.1396C28.3345 22.2291 28.7138 22.3527 29.1314 22.5104C29.5532 22.668 29.9559 22.8832 30.3395 23.156C30.7273 23.4244 31.0469 23.7696 31.2983 24.1915C31.5497 24.6133 31.6754 25.1311 31.6754 25.7447C31.6754 26.4521 31.49 27.0913 31.1193 27.6623C30.7528 28.2334 30.2159 28.6872 29.5085 29.0238C28.8054 29.3605 27.951 29.5288 26.9453 29.5288C26.0078 29.5288 25.196 29.3775 24.5099 29.075C23.8281 28.7724 23.2912 28.3506 22.8991 27.8094C22.5113 27.2682 22.2919 26.6396 22.2407 25.9237H23.8771C23.9197 26.418 24.0859 26.8271 24.3757 27.151C24.6697 27.4706 25.0405 27.7092 25.4879 27.8669C25.9396 28.0203 26.4254 28.097 26.9453 28.097C27.5504 28.097 28.0937 27.999 28.5753 27.803C29.0568 27.6027 29.4382 27.3257 29.7194 26.972C30.0007 26.614 30.1413 26.1964 30.1413 25.7192C30.1413 25.2845 30.0199 24.9308 29.777 24.6581C29.5341 24.3854 29.2145 24.1638 28.8182 23.9933C28.4219 23.8229 27.9936 23.6737 27.5334 23.5459L25.9226 23.0856C24.8998 22.7916 24.0902 22.3719 23.4936 21.8264C22.897 21.281 22.5987 20.5672 22.5987 19.6851C22.5987 18.9521 22.7969 18.3129 23.1932 17.7675C23.5937 17.2177 24.1307 16.7916 24.804 16.489C25.4815 16.1822 26.2379 16.0288 27.0731 16.0288C27.9169 16.0288 28.6669 16.1801 29.3231 16.4827C29.9794 16.7809 30.4993 17.19 30.8828 17.7099C31.2706 18.2298 31.4751 18.82 31.4964 19.4805H29.9623Z"
          fill="black"/>
    <path d="M1.58523 16V2.90909H6.16193C7.07386 2.90909 7.82599 3.06676 8.41832 3.3821C9.01065 3.69318 9.45171 4.11293 9.74148 4.64134C10.0313 5.16548 10.1761 5.74716 10.1761 6.38636C10.1761 6.94886 10.076 7.41335 9.87571 7.77983C9.67969 8.14631 9.41974 8.43608 9.09588 8.64915C8.77628 8.86222 8.42898 9.01989 8.05398 9.12216V9.25C8.45455 9.27557 8.85724 9.41619 9.26207 9.67188C9.6669 9.92756 10.0057 10.294 10.2784 10.7713C10.5511 11.2486 10.6875 11.8324 10.6875 12.5227C10.6875 13.179 10.5384 13.7692 10.2401 14.2933C9.94176 14.8175 9.47088 15.233 8.82741 15.5398C8.18395 15.8466 7.34659 16 6.31534 16H1.58523ZM3.17045 14.5938H6.31534C7.35085 14.5938 8.08594 14.3935 8.5206 13.9929C8.95952 13.5881 9.17898 13.098 9.17898 12.5227C9.17898 12.0795 9.06605 11.6705 8.8402 11.2955C8.61435 10.9162 8.29261 10.6136 7.875 10.3878C7.45739 10.1577 6.96307 10.0426 6.39205 10.0426H3.17045V14.5938ZM3.17045 8.66193H6.1108C6.58807 8.66193 7.01847 8.56818 7.40199 8.38068C7.78977 8.19318 8.09659 7.92898 8.32244 7.58807C8.55256 7.24716 8.66761 6.84659 8.66761 6.38636C8.66761 5.81108 8.46733 5.32315 8.06676 4.92259C7.66619 4.51776 7.03125 4.31534 6.16193 4.31534H3.17045V8.66193Z"
          fill="black"/>
</svg>
