<svg width="32" height="32" viewBox="0 0 32 32" fill="none" xmlns="http://www.w3.org/2000/svg">
    <path d="M27.1222 11.8739C26.7307 11.8739 26.3553 11.7671 26.0785 11.5771C25.8017 11.3871 25.6462 11.1294 25.6462 10.8606V8.83416C25.6438 7.49102 24.8655 6.20335 23.482 5.25361C22.0984 4.30387 20.2226 3.76959 18.266 3.76799H15.3139C14.9225 3.76799 14.547 3.66123 14.2702 3.47122C13.9934 3.2812 13.8379 3.02348 13.8379 2.75475C13.8379 2.48602 13.9934 2.2283 14.2702 2.03829C14.547 1.84827 14.9225 1.74152 15.3139 1.74152H18.266C21.0053 1.74366 23.6315 2.49161 25.5685 3.82127C27.5055 5.15094 28.5951 6.95373 28.5982 8.83416V10.8606C28.5982 11.1294 28.4427 11.3871 28.1659 11.5771C27.8891 11.7671 27.5137 11.8739 27.1222 11.8739Z"
          fill="#77ACF1"/>
    <path d="M16.2249 5.46915C15.8265 5.4691 15.4444 5.37723 15.1627 5.21375L12.158 3.4704C11.8764 3.30694 11.7181 3.08526 11.7181 2.85413C11.7181 2.62299 11.8764 2.40132 12.158 2.23785L15.1627 0.494505C15.3013 0.411251 15.4671 0.344846 15.6504 0.299162C15.8337 0.253478 16.0308 0.229432 16.2303 0.228426C16.4298 0.227421 16.6276 0.249476 16.8122 0.293304C16.9969 0.337133 17.1646 0.401857 17.3057 0.483701C17.4467 0.565545 17.5583 0.662869 17.6338 0.769994C17.7094 0.87712 17.7474 0.991901 17.7456 1.10764C17.7439 1.22338 17.7025 1.33776 17.6237 1.44411C17.545 1.55046 17.4305 1.64664 17.287 1.72705L15.3445 2.85413L17.287 3.9812C17.4971 4.1031 17.6401 4.2584 17.6981 4.42747C17.756 4.59653 17.7262 4.77177 17.6126 4.93102C17.4989 5.09028 17.3064 5.2264 17.0594 5.32218C16.8124 5.41797 16.522 5.46911 16.2249 5.46915Z"
          fill="#77ACF1"/>
    <path d="M15.3625 29.2719H11.7639C9.37882 29.2705 7.09223 28.8021 5.4057 27.9695C3.71918 27.1369 2.77044 26.0081 2.76758 24.8306V21.2775C2.76758 21.042 2.95714 20.816 3.29457 20.6494C3.632 20.4829 4.08965 20.3893 4.56685 20.3893C5.04404 20.3893 5.50169 20.4829 5.83912 20.6494C6.17655 20.816 6.36612 21.042 6.36612 21.2775V24.8306C6.36612 25.5373 6.93481 26.2151 7.9471 26.7149C8.95938 27.2146 10.3323 27.4954 11.7639 27.4954H15.3625C15.8397 27.4954 16.2973 27.589 16.6347 27.7556C16.9722 27.9221 17.1617 28.1481 17.1617 28.3837C17.1617 28.6192 16.9722 28.8452 16.6347 29.0117C16.2973 29.1783 15.8397 29.2719 15.3625 29.2719Z"
          fill="#77ACF1"/>
    <path d="M15.0698 30.9865C14.7718 30.9864 14.4805 30.9351 14.2327 30.8389C13.985 30.7427 13.7918 30.6061 13.6778 30.4461C13.5638 30.2862 13.5339 30.1103 13.5921 29.9405C13.6502 29.7708 13.7937 29.6148 14.0044 29.4924L15.953 28.3607L14.0044 27.229C13.7298 27.064 13.5779 26.8429 13.5814 26.6134C13.5848 26.3839 13.7433 26.1644 14.0227 26.0021C14.3021 25.8398 14.6801 25.7478 15.0753 25.7458C15.4704 25.7438 15.8511 25.832 16.1353 25.9914L19.1494 27.7419C19.4319 27.9061 19.5907 28.1286 19.5907 28.3607C19.5907 28.5928 19.4319 28.8154 19.1494 28.9795L16.1353 30.73C15.8528 30.8942 15.4695 30.9864 15.0698 30.9865Z"
          fill="#77ACF1"/>
    <path d="M27.8146 16.2078H29.3998V25.5658C29.3998 26.401 29.2464 27.1105 28.9396 27.6943C28.6328 28.2781 28.2003 28.7213 27.642 29.0238C27.0838 29.3264 26.4254 29.4777 25.6669 29.4777C24.951 29.4777 24.3139 29.3477 23.7557 29.0878C23.1974 28.8236 22.7585 28.4486 22.4389 27.9628C22.1193 27.477 21.9595 26.8996 21.9595 26.2305H23.5192C23.5192 26.6013 23.6108 26.9251 23.794 27.2021C23.9815 27.4748 24.2372 27.6879 24.5611 27.8413C24.8849 27.9947 25.2535 28.0714 25.6669 28.0714C26.1228 28.0714 26.5106 27.9756 26.8302 27.7838C27.1498 27.592 27.3927 27.3108 27.5589 26.94C27.7294 26.565 27.8146 26.1069 27.8146 25.5658V16.2078Z"
          fill="black"/>
    <path d="M8.74432 6.18182C8.66761 5.53409 8.35653 5.03125 7.81108 4.6733C7.26563 4.31534 6.59659 4.13636 5.80398 4.13636C5.22443 4.13636 4.71733 4.23011 4.28267 4.41761C3.85227 4.60511 3.51563 4.86293 3.27273 5.19105C3.03409 5.51918 2.91477 5.89204 2.91477 6.30966C2.91477 6.65909 2.99787 6.95952 3.16406 7.21094C3.33452 7.4581 3.55185 7.66477 3.81605 7.83097C4.08026 7.9929 4.35724 8.12713 4.64702 8.23366C4.93679 8.33594 5.20312 8.41903 5.44602 8.48295L6.77557 8.84091C7.11648 8.9304 7.49574 9.05398 7.91335 9.21165C8.33523 9.36932 8.73793 9.58452 9.12145 9.85724C9.50923 10.1257 9.82884 10.4709 10.0803 10.8928C10.3317 11.3146 10.4574 11.8324 10.4574 12.446C10.4574 13.1534 10.272 13.7926 9.90128 14.3636C9.5348 14.9347 8.99787 15.3885 8.29048 15.7251C7.58736 16.0618 6.73295 16.2301 5.72727 16.2301C4.78977 16.2301 3.97798 16.0788 3.2919 15.7763C2.61009 15.4737 2.07315 15.0518 1.68111 14.5107C1.29332 13.9695 1.07386 13.3409 1.02273 12.625H2.65909C2.7017 13.1193 2.8679 13.5284 3.15767 13.8523C3.4517 14.1719 3.82244 14.4105 4.26989 14.5682C4.72159 14.7216 5.20739 14.7983 5.72727 14.7983C6.33239 14.7983 6.87571 14.7003 7.35724 14.5043C7.83878 14.304 8.22017 14.027 8.50142 13.6733C8.78267 13.3153 8.9233 12.8977 8.9233 12.4205C8.9233 11.9858 8.80185 11.6321 8.55895 11.3594C8.31605 11.0866 7.99645 10.8651 7.60014 10.6946C7.20384 10.5241 6.77557 10.375 6.31534 10.2472L4.70455 9.78693C3.68182 9.4929 2.87216 9.07315 2.27557 8.5277C1.67898 7.98224 1.38068 7.26847 1.38068 6.38636C1.38068 5.65341 1.57884 5.0142 1.97514 4.46875C2.37571 3.91903 2.91264 3.4929 3.58594 3.19034C4.26349 2.88352 5.01989 2.73011 5.85511 2.73011C6.69886 2.73011 7.44886 2.88139 8.10511 3.18395C8.76136 3.48224 9.28125 3.89133 9.66477 4.41122C10.0526 4.93111 10.2571 5.52131 10.2784 6.18182H8.74432Z"
          fill="black"/>
</svg>
